<svg width="32" height="31" viewBox="0 0 32 31" fill="none" xmlns="http://www.w3.org/2000/svg">
<g clip-path="url(#clip0_2219_5673)">
<rect width="31" height="31" transform="translate(0.556641)" fill="white"/>
<path d="M0.556641 2.22038C0.556641 0.993937 1.57577 0 2.8332 0H29.2801C30.5375 0 31.5566 0.993937 31.5566 2.22038V28.7796C31.5566 30.0061 30.5375 31 29.2801 31H2.8332C1.57577 31 0.556641 30.0061 0.556641 28.7796V2.22038ZM10.1337 25.9509V11.9524H5.48177V25.9509H10.1337ZM7.8087 10.0401C9.43039 10.0401 10.4398 8.96675 10.4398 7.62213C10.4108 6.24844 9.43233 5.20413 7.8397 5.20413C6.24708 5.20413 5.20664 6.25037 5.20664 7.62213C5.20664 8.96675 6.21608 10.0401 7.7777 10.0401H7.8087ZM17.318 25.9509V18.1331C17.318 17.7146 17.349 17.2961 17.473 16.9977C17.8081 16.1626 18.5735 15.2966 19.86 15.2966C21.5436 15.2966 22.216 16.5792 22.216 18.4624V25.9509H26.8679V17.9219C26.8679 13.6206 24.5739 11.6211 21.5126 11.6211C19.0443 11.6211 17.938 12.9774 17.318 13.9326V13.981H17.287C17.2972 13.9648 17.3076 13.9487 17.318 13.9326V11.9524H12.668C12.7261 13.2661 12.668 25.9509 12.668 25.9509H17.318Z" fill="#1E1E1E"/>
</g>
<defs>
<clipPath id="clip0_2219_5673">
<rect width="31" height="31" fill="white" transform="translate(0.556641)"/>
</clipPath>
</defs>
</svg>
