<svg width="32" height="32" viewBox="0 0 32 32" fill="none" xmlns="http://www.w3.org/2000/svg">
<g filter="url(#filter0_b_89_1399)">
<rect x="0.80481" y="0.930664" width="30.4228" height="30.4026" rx="5" fill="#1E1E1E"/>
</g>
<path d="M25.7392 11.7553C25.0869 12.0118 24.3861 12.1851 23.6494 12.2634C24.4095 11.8598 24.9782 11.2245 25.2494 10.4762C24.5352 10.8526 23.7535 11.1176 22.9384 11.2596C22.3903 10.7402 21.6642 10.396 20.873 10.2803C20.0818 10.1646 19.2697 10.284 18.5628 10.6198C17.8558 10.9557 17.2937 11.4893 16.9635 12.1378C16.6333 12.7862 16.5536 13.5133 16.7368 14.206C15.2897 14.1416 13.874 13.8078 12.5816 13.2264C11.2893 12.6449 10.1491 11.8289 9.23517 10.8311C8.92266 11.3095 8.74298 11.8641 8.74298 12.4548C8.74263 12.9865 8.89019 13.5101 9.17257 13.9791C9.45495 14.4481 9.86342 14.848 10.3617 15.1434C9.78382 15.127 9.21866 14.9885 8.71329 14.7392V14.7808C8.71323 15.5266 9.00394 16.2494 9.53609 16.8266C10.0682 17.4039 10.8091 17.8 11.6328 17.9477C11.0967 18.0764 10.5347 18.0954 9.98908 18.0032C10.2215 18.6449 10.6742 19.206 11.2839 19.6081C11.8936 20.0101 12.6297 20.2329 13.3891 20.2452C12.0999 21.1433 10.5077 21.6305 8.86876 21.6283C8.57843 21.6284 8.28834 21.6134 8 21.5833C9.66367 22.5325 11.6003 23.0363 13.5782 23.0343C20.2735 23.0343 23.9337 18.1134 23.9337 13.8455C23.9337 13.7069 23.9298 13.5668 23.9228 13.4282C24.6347 12.9713 25.2493 12.4055 25.7376 11.7573L25.7392 11.7553Z" fill="white"/>
<defs>
<filter id="filter0_b_89_1399" x="-39.1952" y="-39.0693" width="110.423" height="110.403" filterUnits="userSpaceOnUse" color-interpolation-filters="sRGB">
<feFlood flood-opacity="0" result="BackgroundImageFix"/>
<feGaussianBlur in="BackgroundImage" stdDeviation="20"/>
<feComposite in2="SourceAlpha" operator="in" result="effect1_backgroundBlur_89_1399"/>
<feBlend mode="normal" in="SourceGraphic" in2="effect1_backgroundBlur_89_1399" result="shape"/>
</filter>
</defs>
</svg>
