<svg width="16" height="16" viewBox="0 0 16 16" fill="none" xmlns="http://www.w3.org/2000/svg">
<path d="M1.6 16.0001H11.2V14.4001H1.6V4.80005H0V14.4001C0 15.2825 0.7176 16.0001 1.6 16.0001Z" fill="white"/>
<path d="M14.3994 0H4.79943C3.91703 0 3.19943 0.7176 3.19943 1.6V11.2C3.19943 12.0824 3.91703 12.8 4.79943 12.8H14.3994C15.2818 12.8 15.9994 12.0824 15.9994 11.2V1.6C15.9994 0.7176 15.2818 0 14.3994 0ZM12.7994 7.2H10.3994V9.6H8.79943V7.2H6.39943V5.6H8.79943V3.2H10.3994V5.6H12.7994V7.2Z" fill="white"/>
</svg>
