<svg width="367" height="42" viewBox="0 0 367 42" fill="none" xmlns="http://www.w3.org/2000/svg">
<path d="M320 36.8096H367V41.2858H320V36.8096Z" fill="#FBA819"/>
<path d="M360.048 4.47619C360.048 2.01428 358.033 0 355.571 0H348.857V4.47619H355.571V10.4071L347.783 20.1428H339.905V8.95237H330.952C326.006 8.95237 322 12.9586 322 17.9047V24.619H326.476C326.476 28.3343 329.475 31.3333 333.19 31.3333C336.906 31.3333 339.905 28.3343 339.905 24.619H349.931L360.048 11.9738V4.47619ZM326.476 20.1428V17.9047C326.476 15.4428 328.49 13.4286 330.952 13.4286H335.429V20.1428H326.476ZM333.19 26.8571C331.96 26.8571 330.952 25.85 330.952 24.619H335.429C335.429 25.85 334.421 26.8571 333.19 26.8571Z" fill="#3E3E3E"/>
<path d="M328.714 2.23804H339.904V6.71422H328.714V2.23804ZM360.047 17.9047C356.332 17.9047 353.333 20.9037 353.333 24.619C353.333 28.3342 356.332 31.3333 360.047 31.3333C363.762 31.3333 366.761 28.3342 366.761 24.619C366.761 20.9037 363.762 17.9047 360.047 17.9047ZM360.047 26.8571C358.816 26.8571 357.809 25.8499 357.809 24.619C357.809 23.388 358.816 22.3809 360.047 22.3809C361.278 22.3809 362.285 23.388 362.285 24.619C362.285 25.8499 361.278 26.8571 360.047 26.8571Z" fill="#3E3E3E"/>
<rect x="299" y="37.2856" width="13" height="4" fill="#FBA819"/>
<rect x="207" y="37.2856" width="13" height="4" fill="#FBA819" fill-opacity="0.7"/>
<rect x="115" y="37.2856" width="13" height="4" fill="#FBA819" fill-opacity="0.3"/>
<rect x="276" y="37.2856" width="13" height="4" fill="#FBA819" fill-opacity="0.9"/>
<rect x="184" y="37.2856" width="13" height="4" fill="#FBA819" fill-opacity="0.6"/>
<rect x="92" y="37.2856" width="13" height="4" fill="#FBA819" fill-opacity="0.2"/>
<rect x="253" y="37.2856" width="13" height="4" fill="#FBA819" fill-opacity="0.8"/>
<rect x="161" y="37.2856" width="13" height="4" fill="#FBA819" fill-opacity="0.5"/>
<rect x="69" y="37.2856" width="13" height="4" fill="#FBA819" fill-opacity="0.1"/>
<rect x="230" y="37.2856" width="13" height="4" fill="#FBA819" fill-opacity="0.7"/>
<rect x="138" y="37.2856" width="13" height="4" fill="#FBA819" fill-opacity="0.4"/>
<rect x="46" y="37.2856" width="13" height="4" fill="#FBA819" fill-opacity="0.1"/>
<rect x="23" y="37" width="13" height="4" fill="#FBA819" fill-opacity="0.1"/>
<rect y="37" width="13" height="4" fill="#FBA819" fill-opacity="0.1"/>
</svg>
