<svg width="312" height="42" viewBox="0 0 312 42" fill="none" xmlns="http://www.w3.org/2000/svg">
<path d="M0 36.8096H44.7619V41.2858H0V36.8096Z" fill="#FBA819"/>
<path d="M38.1406 4.47619C38.1406 2.01428 36.2222 0 33.8775 0H27.483V4.47619H33.8775V10.4071L26.4599 20.1428H18.9569V8.95237H10.4309C5.7202 8.95237 1.90479 12.9586 1.90479 17.9047V24.619H6.16782C6.16782 28.3343 9.02405 31.3333 12.5624 31.3333C16.1007 31.3333 18.9569 28.3343 18.9569 24.619H28.5061L38.1406 11.9738V4.47619ZM6.16782 20.1428V17.9047C6.16782 15.4428 8.08618 13.4286 10.4309 13.4286H14.6939V20.1428H6.16782ZM12.5624 26.8571C11.39 26.8571 10.4309 25.85 10.4309 24.619H14.6939C14.6939 25.85 13.7347 26.8571 12.5624 26.8571Z" fill="#3E3E3E"/>
<path d="M8.29895 2.23804H18.9565V6.71422H8.29895V2.23804ZM38.1402 17.9047C34.6019 17.9047 31.7456 20.9037 31.7456 24.619C31.7456 28.3342 34.6019 31.3333 38.1402 31.3333C41.6785 31.3333 44.5347 28.3342 44.5347 24.619C44.5347 20.9037 41.6785 17.9047 38.1402 17.9047ZM38.1402 26.8571C36.9679 26.8571 36.0087 25.8499 36.0087 24.619C36.0087 23.388 36.9679 22.3809 38.1402 22.3809C39.3125 22.3809 40.2717 23.388 40.2717 24.619C40.2717 25.8499 39.3125 26.8571 38.1402 26.8571Z" fill="#3E3E3E"/>
<rect width="13" height="4" transform="matrix(-1 0 0 1 13 37.2856)" fill="#FBA819"/>
<rect width="13" height="4" transform="matrix(-1 0 0 1 105 37.2856)" fill="#FBA819" fill-opacity="0.7"/>
<rect width="13" height="4" transform="matrix(-1 0 0 1 197 37.2856)" fill="#FBA819" fill-opacity="0.3"/>
<rect width="13" height="4" transform="matrix(-1 0 0 1 36 37.2856)" fill="#FBA819" fill-opacity="0.9"/>
<rect width="13" height="4" transform="matrix(-1 0 0 1 128 37.2856)" fill="#FBA819" fill-opacity="0.6"/>
<rect width="13" height="4" transform="matrix(-1 0 0 1 220 37.2856)" fill="#FBA819" fill-opacity="0.2"/>
<rect width="13" height="4" transform="matrix(-1 0 0 1 59 37.2856)" fill="#FBA819" fill-opacity="0.8"/>
<rect width="13" height="4" transform="matrix(-1 0 0 1 151 37.2856)" fill="#FBA819" fill-opacity="0.5"/>
<rect width="13" height="4" transform="matrix(-1 0 0 1 243 37.2856)" fill="#FBA819" fill-opacity="0.1"/>
<rect width="13" height="4" transform="matrix(-1 0 0 1 82 37.2856)" fill="#FBA819" fill-opacity="0.7"/>
<rect width="13" height="4" transform="matrix(-1 0 0 1 174 37.2856)" fill="#FBA819" fill-opacity="0.4"/>
<rect width="13" height="4" transform="matrix(-1 0 0 1 266 37.2856)" fill="#FBA819" fill-opacity="0.1"/>
<rect width="13" height="4" transform="matrix(-1 0 0 1 289 37)" fill="#FBA819" fill-opacity="0.1"/>
<rect width="13" height="4" transform="matrix(-1 0 0 1 312 37)" fill="#FBA819" fill-opacity="0.1"/>
</svg>
