<svg width="20" height="19" viewBox="0 0 20 19" fill="none" xmlns="http://www.w3.org/2000/svg">
<path d="M0 0.811357C0 0.596171 0.0890209 0.3898 0.247479 0.237641C0.405938 0.0854819 0.620854 0 0.844948 0H1.47359C2.54386 0 3.18602 0.691276 3.55216 1.33387C3.79663 1.76227 3.97351 2.25882 4.11208 2.70885C4.14956 2.70601 4.18714 2.70456 4.22474 2.70452H18.3049C19.24 2.70452 19.916 3.56348 19.6591 4.42784L17.5997 11.3612C17.4151 11.983 17.0244 12.5302 16.4869 12.9198C15.9495 13.3095 15.2944 13.5203 14.621 13.5204H7.91998C7.24119 13.5205 6.58119 13.3064 6.0414 12.9112C5.50162 12.5161 5.11193 11.9616 4.93224 11.333L4.07603 8.33425L2.65652 3.73873L2.65539 3.73008C2.47964 3.11669 2.31516 2.54225 2.06956 2.11385C1.8341 1.69736 1.64483 1.62271 1.47472 1.62271H0.844948C0.620854 1.62271 0.405938 1.53723 0.247479 1.38507C0.0890209 1.23291 0 1.02654 0 0.811357ZM5.71523 7.94048L6.5613 10.9036C6.73029 11.4899 7.2857 11.8977 7.91998 11.8977H14.621C14.9271 11.8977 15.2248 11.802 15.4692 11.6249C15.7135 11.4479 15.8911 11.1992 15.9751 10.9165L17.932 4.32723H4.60215L5.69945 7.88314L5.71523 7.94048Z" fill="#FBA819"/>
<path d="M9.57621 16.7681C9.57621 17.3419 9.33882 17.8923 8.91627 18.298C8.49371 18.7038 7.9206 18.9317 7.32302 18.9317C6.72543 18.9317 6.15233 18.7038 5.72977 18.298C5.30721 17.8923 5.06982 17.3419 5.06982 16.7681C5.06982 16.1943 5.30721 15.644 5.72977 15.2382C6.15233 14.8324 6.72543 14.6045 7.32302 14.6045C7.9206 14.6045 8.49371 14.8324 8.91627 15.2382C9.33882 15.644 9.57621 16.1943 9.57621 16.7681ZM7.88632 16.7681C7.88632 16.6247 7.82697 16.4871 7.72133 16.3856C7.61569 16.2842 7.47241 16.2272 7.32302 16.2272C7.17362 16.2272 7.03034 16.2842 6.92471 16.3856C6.81907 16.4871 6.75972 16.6247 6.75972 16.7681C6.75972 16.9116 6.81907 17.0491 6.92471 17.1506C7.03034 17.252 7.17362 17.309 7.32302 17.309C7.47241 17.309 7.61569 17.252 7.72133 17.1506C7.82697 17.0491 7.88632 16.9116 7.88632 16.7681Z" fill="#FBA819"/>
<path d="M17.4624 16.7681C17.4624 17.3419 17.2251 17.8923 16.8025 18.298C16.3799 18.7038 15.8068 18.9317 15.2092 18.9317C14.6117 18.9317 14.0386 18.7038 13.616 18.298C13.1934 17.8923 12.9561 17.3419 12.9561 16.7681C12.9561 16.1943 13.1934 15.644 13.616 15.2382C14.0386 14.8324 14.6117 14.6045 15.2092 14.6045C15.8068 14.6045 16.3799 14.8324 16.8025 15.2382C17.2251 15.644 17.4624 16.1943 17.4624 16.7681ZM15.7725 16.7681C15.7725 16.6247 15.7132 16.4871 15.6076 16.3856C15.5019 16.2842 15.3586 16.2272 15.2092 16.2272C15.0599 16.2272 14.9166 16.2842 14.8109 16.3856C14.7053 16.4871 14.6459 16.6247 14.6459 16.7681C14.6459 16.9116 14.7053 17.0491 14.8109 17.1506C14.9166 17.252 15.0599 17.309 15.2092 17.309C15.3586 17.309 15.5019 17.252 15.6076 17.1506C15.7132 17.0491 15.7725 16.9116 15.7725 16.7681Z" fill="#FBA819"/>
</svg>
