<svg width="18" height="18" viewBox="0 0 18 18" fill="none" xmlns="http://www.w3.org/2000/svg">
<path d="M0 0.740812C0 0.544336 0.0812809 0.355908 0.225962 0.216979C0.370643 0.0780495 0.566873 0 0.771482 0H1.34547C2.32268 0 2.909 0.631172 3.24331 1.21789C3.46653 1.60904 3.62802 2.06242 3.75455 2.47332C3.78877 2.47073 3.82308 2.46941 3.85741 2.46937H16.7134C17.5672 2.46937 18.1844 3.25365 17.9498 4.04286L16.0695 10.3733C15.9009 10.9412 15.5442 11.4408 15.0535 11.7965C14.5627 12.1522 13.9646 12.3448 13.3497 12.3449H7.23136C6.6116 12.3449 6.00898 12.1495 5.51613 11.7887C5.02327 11.4278 4.66747 10.9216 4.5034 10.3477L3.72163 7.60962L2.42554 3.41366L2.42451 3.40576C2.26404 2.84571 2.11386 2.32121 1.88962 1.93006C1.67463 1.54978 1.50182 1.48162 1.34649 1.48162H0.771482C0.566873 1.48162 0.370643 1.40357 0.225962 1.26465C0.0812809 1.12572 0 0.937287 0 0.740812ZM5.21831 7.25008L5.99082 9.95552C6.14512 10.4909 6.65224 10.8633 7.23136 10.8633H13.3497C13.6292 10.8633 13.9011 10.7758 14.1242 10.6142C14.3473 10.4525 14.5095 10.2255 14.5862 9.96738L16.3729 3.951H4.20201L5.20391 7.19773L5.21831 7.25008Z" fill="#AAAAAA"/>
<path d="M8.74403 15.3102C8.74403 15.8341 8.52728 16.3366 8.14146 16.7071C7.75565 17.0776 7.23237 17.2857 6.68674 17.2857C6.14112 17.2857 5.61784 17.0776 5.23202 16.7071C4.8462 16.3366 4.62946 15.8341 4.62946 15.3102C4.62946 14.7863 4.8462 14.2838 5.23202 13.9133C5.61784 13.5428 6.14112 13.3347 6.68674 13.3347C7.23237 13.3347 7.75565 13.5428 8.14146 13.9133C8.52728 14.2838 8.74403 14.7863 8.74403 15.3102ZM7.20106 15.3102C7.20106 15.1792 7.14688 15.0536 7.05042 14.961C6.95397 14.8684 6.82315 14.8163 6.68674 14.8163C6.55034 14.8163 6.41952 14.8684 6.32306 14.961C6.22661 15.0536 6.17242 15.1792 6.17242 15.3102C6.17242 15.4412 6.22661 15.5668 6.32306 15.6594C6.41952 15.7521 6.55034 15.8041 6.68674 15.8041C6.82315 15.8041 6.95397 15.7521 7.05042 15.6594C7.14688 15.5668 7.20106 15.4412 7.20106 15.3102Z" fill="#AAAAAA"/>
<path d="M15.9436 15.3102C15.9436 15.8341 15.7268 16.3366 15.341 16.7071C14.9552 17.0776 14.4319 17.2857 13.8863 17.2857C13.3406 17.2857 12.8174 17.0776 12.4315 16.7071C12.0457 16.3366 11.829 15.8341 11.829 15.3102C11.829 14.7863 12.0457 14.2838 12.4315 13.9133C12.8174 13.5428 13.3406 13.3347 13.8863 13.3347C14.4319 13.3347 14.9552 13.5428 15.341 13.9133C15.7268 14.2838 15.9436 14.7863 15.9436 15.3102ZM14.4006 15.3102C14.4006 15.1792 14.3464 15.0536 14.2499 14.961C14.1535 14.8684 14.0227 14.8163 13.8863 14.8163C13.7499 14.8163 13.619 14.8684 13.5226 14.961C13.4261 15.0536 13.3719 15.1792 13.3719 15.3102C13.3719 15.4412 13.4261 15.5668 13.5226 15.6594C13.619 15.7521 13.7499 15.8041 13.8863 15.8041C14.0227 15.8041 14.1535 15.7521 14.2499 15.6594C14.3464 15.5668 14.4006 15.4412 14.4006 15.3102Z" fill="#AAAAAA"/>
</svg>
