<svg width="16" height="17" viewBox="0 0 16 17" fill="none" xmlns="http://www.w3.org/2000/svg">
<path d="M2.26087 17V10.881H0V9.35714H2.26087V7.40476H0V5.88095H2.26087V0H5.27536L8.02898 5.88095H11.4493V0H13.7391V5.88095H16V7.40476H13.7391V9.35714H16V10.881H13.7391V17H10.6957L7.94203 10.881H4.52174V17H2.26087ZM4.46377 5.88095H5.68116L4.46377 2.92857H4.34783L4.46377 5.88095ZM4.52174 9.35714H7.24638L6.37681 7.40476H4.46377L4.52174 9.35714ZM9.56522 9.35714H11.5072L11.4493 7.40476H8.69565L9.56522 9.35714ZM11.4493 13.6429H11.5652L11.4783 10.881H10.2609L11.4493 13.6429Z" fill="#AAAAAA"/>
</svg>
