<svg width="57" height="25" viewBox="0 0 57 25" fill="none" xmlns="http://www.w3.org/2000/svg">
<path d="M7.1102 20.3869C5.48108 20.3869 4.0939 20.0242 2.94868 19.2988C1.81958 18.5574 1.02921 17.5338 0.577576 16.2281L2.97287 14.8257C3.65033 16.7278 5.05363 17.6789 7.18279 17.6789C8.2151 17.6789 8.99741 17.4774 9.52969 17.0744C10.062 16.6714 10.3281 16.1314 10.3281 15.4544C10.3281 14.7774 10.0459 14.2535 9.4813 13.8828C8.91676 13.512 7.9167 13.109 6.48113 12.6738C5.01331 12.2386 3.82776 11.7228 2.92448 11.1264C1.82765 10.3526 1.27923 9.21624 1.27923 7.71715C1.27923 6.21805 1.81152 5.03329 2.87609 4.16285C3.92454 3.27629 5.20687 2.83301 6.72308 2.83301C8.06187 2.83301 9.23935 3.16345 10.2555 3.82434C11.2879 4.46911 12.0782 5.37985 12.6266 6.55656L10.2797 7.91058C9.57002 6.33089 8.38447 5.54105 6.72308 5.54105C5.91659 5.54105 5.27139 5.73448 4.78749 6.12134C4.30359 6.49208 4.06164 6.99984 4.06164 7.64461C4.06164 8.27326 4.30359 8.77296 4.78749 9.1437C5.27139 9.49833 6.1666 9.87713 7.47313 10.2801C8.27962 10.5541 8.74739 10.7153 8.87643 10.7637C9.08612 10.8282 9.5055 10.9894 10.1346 11.2473C10.6507 11.4568 11.062 11.6825 11.3685 11.9243C12.6266 12.9076 13.2073 14.0681 13.1105 15.406C13.1105 16.9374 12.5541 18.1544 11.4411 19.0571C10.3604 19.9436 8.91675 20.3869 7.1102 20.3869Z" fill="#FBA819"/>
<path d="M22.2091 7.66879C23.8544 7.66879 25.2738 8.28938 26.4675 9.53056C27.6449 10.7556 28.2337 12.2547 28.2337 14.0278C28.2337 15.8171 27.6449 17.3242 26.4675 18.5493C25.29 19.7744 23.8705 20.3869 22.2091 20.3869C20.3865 20.3869 18.9751 19.7099 17.975 18.3559V24.9083H15.278V7.98312H17.975V9.724C18.959 8.35386 20.3703 7.66879 22.2091 7.66879ZM19.0638 16.8084C19.7897 17.5338 20.701 17.8965 21.7978 17.8965C22.8947 17.8965 23.806 17.5338 24.5319 16.8084C25.2577 16.0669 25.6206 15.1401 25.6206 14.0278C25.6206 12.9156 25.2577 11.9968 24.5319 11.2714C23.806 10.53 22.8947 10.1592 21.7978 10.1592C20.701 10.1592 19.7897 10.53 19.0638 11.2714C18.338 11.9968 17.975 12.9156 17.975 14.0278C17.975 15.124 18.338 16.0508 19.0638 16.8084Z" fill="#FBA819"/>
<path d="M33.215 20.0726H30.3588V10.1592L33.215 12.7685V20.0726Z" fill="#FBA819"/>
<path d="M27.4182 0.342773H23.3017L27.4182 4.33061V0.342773Z" fill="#FBA919"/>
<path d="M33.214 0.342773H29.0975L33.214 4.33061V0.342773Z" fill="#E42B27"/>
<path d="M33.214 6.13574H29.0975L33.214 10.1236V6.13574Z" fill="#379D47"/>
<path d="M38.5918 11.7606V0.342773H35.5255V20.1141H38.5918V15.1188L40.4401 13.2718L44.7666 20.1141H48.505L42.6663 11.2149L48.001 6.09366H44.2205L38.5918 11.7606Z" fill="#FBA819"/>
<path d="M46.7057 11.7606V0.342773H43.6393V20.1141H46.7057V15.1188L48.5539 13.2718L52.8804 20.1141H56.6189L50.7802 11.2149L56.1148 6.09366H52.3343L46.7057 11.7606Z" fill="#FBA819"/>
</svg>
