<svg width="18" height="18" viewBox="0 0 18 18" fill="none" xmlns="http://www.w3.org/2000/svg">
<path d="M1 4.2C1 3.35131 1.33714 2.53737 1.93726 1.93726C2.53737 1.33714 3.35131 1 4.2 1H13.8C14.6487 1 15.4626 1.33714 16.0627 1.93726C16.6629 2.53737 17 3.35131 17 4.2V13.8C17 14.6487 16.6629 15.4626 16.0627 16.0627C15.4626 16.6629 14.6487 17 13.8 17H4.2C3.35131 17 2.53737 16.6629 1.93726 16.0627C1.33714 15.4626 1 14.6487 1 13.8V4.2Z" stroke="#AAAAAA" stroke-width="2" stroke-linecap="round" stroke-linejoin="round"/>
<path d="M6.2 8.19995C7.30457 8.19995 8.2 7.30452 8.2 6.19995C8.2 5.09538 7.30457 4.19995 6.2 4.19995C5.09543 4.19995 4.2 5.09538 4.2 6.19995C4.2 7.30452 5.09543 8.19995 6.2 8.19995Z" stroke="#AAAAAA" stroke-width="2" stroke-linecap="round" stroke-linejoin="round"/>
<path d="M11.0208 9.49674L4.2 16.9999H13.9064C14.7269 16.9999 15.5137 16.674 16.0939 16.0938C16.6741 15.5137 17 14.7268 17 13.9063V13.7999C17 13.4271 16.86 13.2839 16.608 13.0079L13.384 9.49194C13.2337 9.32804 13.051 9.19725 12.8473 9.10792C12.6437 9.0186 12.4237 8.9727 12.2013 8.97315C11.979 8.9736 11.7592 9.02039 11.5559 9.11055C11.3526 9.2007 11.1704 9.33223 11.0208 9.49674V9.49674Z" stroke="#AAAAAA" stroke-width="2" stroke-linecap="round" stroke-linejoin="round"/>
</svg>
