<svg width="2622" height="1039" viewBox="0 0 2622 1039" fill="none" xmlns="http://www.w3.org/2000/svg">
<path d="M276.013 847.435C207.18 847.435 148.57 832.101 100.183 801.433C52.4766 770.083 19.0824 726.807 0 671.604L101.205 612.313C129.829 692.731 189.12 732.941 279.08 732.941C322.697 732.941 355.751 724.422 378.241 707.384C400.731 690.346 411.976 667.515 411.976 638.892C411.976 610.268 400.049 588.119 376.196 572.444C352.343 556.769 310.089 539.731 249.434 521.33C187.417 502.929 137.325 481.121 99.1604 455.905C52.8174 423.192 29.6459 375.145 29.6459 311.765C29.6459 248.384 52.1359 198.292 97.1158 161.491C141.414 124.007 195.595 105.266 259.657 105.266C316.223 105.266 365.973 119.237 408.909 147.179C452.526 174.439 485.92 212.945 509.091 262.696L409.931 319.943C379.944 253.154 329.853 219.76 259.657 219.76C225.581 219.76 198.321 227.938 177.875 244.295C157.43 259.969 147.207 281.437 147.207 308.698C147.207 335.277 157.43 356.404 177.875 372.079C198.321 387.072 236.145 403.088 291.348 420.125C325.423 431.711 345.187 438.526 350.639 440.571C359.499 443.297 377.218 450.112 403.797 461.016C425.606 469.876 442.985 479.417 455.933 489.64C509.092 531.212 533.626 580.281 529.537 636.847C529.537 701.591 506.025 753.045 459 791.21C413.339 828.693 352.343 847.435 276.013 847.435Z" fill="black"/>
<path d="M913.967 309.72C983.482 309.72 1043.45 335.958 1093.89 388.435C1143.64 440.23 1168.51 503.611 1168.51 578.578C1168.51 654.226 1143.64 717.947 1093.89 769.742C1044.14 821.538 984.163 847.435 913.967 847.435C836.956 847.435 777.323 818.812 735.069 761.564V1038.6H621.115V323.01H735.069V396.613C776.642 338.684 836.274 309.72 913.967 309.72ZM781.072 696.139C811.74 726.807 850.245 742.141 896.589 742.141C942.932 742.141 981.437 726.807 1012.11 696.139C1042.77 664.789 1058.11 625.602 1058.11 578.578C1058.11 531.553 1042.77 492.707 1012.11 462.039C981.437 430.689 942.932 415.014 896.589 415.014C850.245 415.014 811.74 430.689 781.072 462.039C750.404 492.707 735.069 531.553 735.069 578.578C735.069 624.921 750.404 664.108 781.072 696.139Z" fill="black"/>
<path d="M1378.98 834.146H1258.3V415.014L1378.98 525.334V834.146Z" fill="black"/>
<path d="M1134.07 0H960.141L1134.07 168.604V0Z" fill="#FBA919"/>
<path d="M1378.99 0H1205.06L1378.99 168.604V0Z" fill="#E42B27"/>
<path d="M1378.99 244.922H1205.06L1378.99 413.526V244.922Z" fill="#379D47"/>
<path d="M1606.16 482.74V0H1476.6V835.92H1606.16V624.722L1684.25 546.632L1867.05 835.92H2025.01L1778.31 459.667L2003.71 243.145H1843.98L1606.16 482.74Z" fill="black"/>
<path d="M2202.49 482.74V0H2072.93V835.92H2202.49V624.722L2280.58 546.632L2463.38 835.92H2621.33L2374.64 459.667L2600.04 243.145H2440.31L2202.49 482.74Z" fill="black"/>
</svg>
