<svg width="75" height="33" viewBox="0 0 75 33" fill="none" xmlns="http://www.w3.org/2000/svg">
<path d="M8.52891 26.1866C6.40195 26.1866 4.59087 25.7128 3.09568 24.7651C1.62155 23.7964 0.589653 22.4592 0 20.7534L3.12727 18.9213C4.01175 21.4062 5.84388 22.6487 8.62368 22.6487C9.97145 22.6487 10.9928 22.3855 11.6878 21.859C12.3827 21.3325 12.7302 20.627 12.7302 19.7425C12.7302 18.8581 12.3617 18.1737 11.6246 17.6893C10.8875 17.2049 9.58186 16.6785 7.70761 16.1099C5.79123 15.5413 4.2434 14.8674 3.06409 14.0882C1.63208 13.0774 0.916068 11.5927 0.916068 9.63421C0.916068 7.67572 1.61102 6.12789 3.00091 4.9907C4.36975 3.83245 6.04394 3.25333 8.02349 3.25333C9.77139 3.25333 11.3087 3.68504 12.6354 4.54846C13.9832 5.39082 15.0151 6.58065 15.7311 8.11796L12.667 9.88692C11.7404 7.82314 10.1926 6.79125 8.02349 6.79125C6.97054 6.79125 6.12818 7.04395 5.49641 7.54937C4.86464 8.03373 4.54875 8.69709 4.54875 9.53945C4.54875 10.3608 4.86464 11.0136 5.49641 11.4979C6.12818 11.9612 7.29696 12.4561 9.00274 12.9826C10.0557 13.3406 10.6664 13.5512 10.8349 13.6144C11.1086 13.6986 11.6562 13.9092 12.4775 14.2461C13.1514 14.5199 13.6884 14.8147 14.0885 15.1306C15.7311 16.4152 16.4892 17.9315 16.3629 19.6794C16.3629 21.68 15.6363 23.2699 14.1833 24.4492C12.7723 25.6075 10.8875 26.1866 8.52891 26.1866Z" fill="#1E1E1E"/>
<path d="M28.2419 9.57104C30.3899 9.57104 32.2431 10.3818 33.8015 12.0034C35.3388 13.6038 36.1074 15.5623 36.1074 17.8788C36.1074 20.2164 35.3388 22.1854 33.8015 23.7859C32.2642 25.3864 30.411 26.1866 28.2419 26.1866C25.8622 26.1866 24.0196 25.3021 22.7139 23.5332V32.0937H19.1926V9.98169H22.7139V12.2561C23.9985 10.466 25.8412 9.57104 28.2419 9.57104ZM24.1354 21.5115C25.083 22.4592 26.2729 22.933 27.7049 22.933C29.1369 22.933 30.3267 22.4592 31.2744 21.5115C32.2221 20.5428 32.6959 19.3319 32.6959 17.8788C32.6959 16.4258 32.2221 15.2254 31.2744 14.2777C30.3267 13.309 29.1369 12.8247 27.7049 12.8247C26.2729 12.8247 25.083 13.309 24.1354 14.2777C23.1877 15.2254 22.7139 16.4258 22.7139 17.8788C22.7139 19.3108 23.1877 20.5217 24.1354 21.5115Z" fill="#1E1E1E"/>
<path d="M42.611 25.776H38.882V12.8247L42.611 16.2336V25.776Z" fill="#1E1E1E"/>
<path d="M35.0416 3.05176e-05H29.6671L35.0416 5.20995V3.05176e-05Z" fill="#FBA919"/>
<path d="M42.61 -9.15527e-05H37.2355L42.61 5.20983V-9.15527e-05Z" fill="#E42B27"/>
<path d="M42.61 7.56802H37.2355L42.61 12.7779V7.56802Z" fill="#379D47"/>
<path d="M43.6308 14.9175V0.000701904H39.6274V25.8309H43.6308V19.3048L46.0438 16.8918L51.6924 25.8309H56.5733L48.9504 14.2046L55.9152 7.51395H50.9795L43.6308 14.9175Z" fill="#1E1E1E"/>
<path d="M62.057 14.9175V0.000701904H58.0536V25.8309H62.057V19.3048L64.47 16.8918L70.1186 25.8309H74.9995L67.3766 14.2046L74.3414 7.51395H69.4057L62.057 14.9175Z" fill="#1E1E1E"/>
</svg>
